<svg width="22" height="22" viewBox="0 0 22 22" fill="none" xmlns="http://www.w3.org/2000/svg">
<path d="M1 1H3.22222L3.66667 3.22222M5.44444 12.1111H16.5556L21 3.22222H3.66667M5.44444 12.1111L3.66667 3.22222M5.44444 12.1111L2.89679 14.6588C2.19682 15.3587 2.69257 16.5556 3.68246 16.5556H16.5556M16.5556 16.5556C15.3283 16.5556 14.3333 17.5505 14.3333 18.7778C14.3333 20.0051 15.3283 21 16.5556 21C17.7829 21 18.7778 20.0051 18.7778 18.7778C18.7778 17.5505 17.7829 16.5556 16.5556 16.5556ZM7.66667 18.7778C7.66667 20.0051 6.67174 21 5.44444 21C4.21715 21 3.22222 20.0051 3.22222 18.7778C3.22222 17.5505 4.21715 16.5556 5.44444 16.5556C6.67174 16.5556 7.66667 17.5505 7.66667 18.7778Z" stroke="#090937" stroke-width="2" stroke-linecap="round" stroke-linejoin="round"/>
</svg>
